<svg xmlns="http://www.w3.org/2000/svg" version="1.1" xmlns:xlink="http://www.w3.org/1999/xlink" xmlns:svgjs="http://svgjs.dev/svgjs" width="1000" height="1000" viewBox="0 0 1000 1000"><rect width="1000" height="1000" fill="#ffffff"></rect><g transform="matrix(0.7,0,0,0.7,150,150)"><svg viewBox="0 0 280 280" data-background-color="#000000" preserveAspectRatio="xMidYMid meet" height="1000" width="1000" xmlns="http://www.w3.org/2000/svg" xmlns:xlink="http://www.w3.org/1999/xlink"><g id="tight-bounds" transform="matrix(1,0,0,1,0,0)"><svg viewBox="0 0 280 280" height="280" width="280"><g><svg viewBox="0 0 280 280" height="280" width="280"><g transform="matrix(1,0,0,1,60.80404050710668,112.6653515414323)"><svg viewBox="0 0 158.39191898578665 54.669296917135405" height="54.669296917135405" width="158.39191898578665"><g><svg viewBox="0 0 288.1122535736158 99.44253745353272" height="54.669296917135405" width="158.39191898578665"><g><rect width="5.105221303972363" height="99.44253745353272" x="111.25065960853647" y="0" fill="#000000" opacity="1" stroke-width="0" stroke="transparent" fill-opacity="1" class="rect-qz-0" data-fill-palette-color="primary" rx="1%" id="qz-0" data-palette-color="#ffffff"></rect></g><g transform="matrix(1,0,0,1,129.72033458782914,0.24736949615306258)"><svg viewBox="0 0 158.39191898578665 98.9477984612266" height="98.9477984612266" width="158.39191898578665"><g id="textblocktransform"><svg viewBox="0 0 158.39191898578665 98.9477984612266" height="98.9477984612266" width="158.39191898578665" id="textblock"><g><svg viewBox="0 0 158.39191898578665 56.6108103971616" height="56.6108103971616" width="158.39191898578665"><g transform="matrix(1,0,0,1,0,0)"><svg width="158.39191898578665" viewBox="1.75 -31.95 120.44 43.05" height="56.6108103971616" data-palette-color="#ffffff"><path d="M18.3 0L1.75 0 1.75-0.9 4.1-0.9Q4.8-0.9 4.8-1.6L4.8-1.6 4.8-30Q4.8-30.6 4.1-30.6L4.1-30.6 1.75-30.6 1.75-31.5 17.6-31.5Q21.55-31.5 23.15-31.95L23.15-31.95Q22.7-29.9 22.7-26.25L22.7-26.25 22.7-23.9 21.55-23.9 20.8-29Q20.7-30.1 19.4-30.1L19.4-30.1 8.9-30.1 8.9-16.45 18.95-16.45Q19.55-16.45 19.65-17.15L19.65-17.15 19.9-20.25 20.8-20.25 20.8-11.25 19.9-11.25 19.65-14.35Q19.55-15.05 18.95-15.05L18.95-15.05 8.9-15.05 8.9-1.4 20.1-1.4Q21.4-1.4 21.5-2.5L21.5-2.5 22.25-8.35 23.4-8.35 23.4-6Q23.4-1.6 23.85 0.45L23.85 0.45Q22.25 0 18.3 0L18.3 0ZM40.15-20.7L40.15-21.6 46.85-21.6 46.85-20.7 45-20.7Q44.45-20.7 44.1-20.2L44.1-20.2 38.35-11.55 44.35-1.3Q44.6-0.9 45.05-0.9L45.05-0.9 47.1-0.9 47.1 0 44.75 0Q42.35 0 41.15 0.3L41.15 0.3 35.65-9.1 30.25-0.9 32.8-0.9 32.8 0 26.1 0 26.1-0.9 27.95-0.9Q28.5-0.9 28.85-1.4L28.85-1.4 34.85-10.45 29.1-20.3Q28.85-20.7 28.4-20.7L28.4-20.7 26.35-20.7 26.35-21.6 28.7-21.6Q31.1-21.6 32.3-21.9L32.3-21.9 37.55-12.9 42.7-20.7 40.15-20.7ZM52.14-2.45Q49.34-5.5 49.34-10.8 49.34-16.1 52.14-19.15 54.95-22.2 59.45-22.2 63.95-22.2 66.77-19.15 69.59-16.1 69.59-10.8 69.59-5.5 66.77-2.45 63.95 0.6 59.45 0.6 54.95 0.6 52.14-2.45ZM54.95-18.32Q53.14-15.55 53.14-10.8 53.14-6.05 54.95-3.28 56.74-0.5 59.45-0.5 62.14-0.5 63.97-3.28 65.8-6.05 65.8-10.8 65.8-15.55 63.97-18.32 62.14-21.1 59.45-21.1 56.74-21.1 54.95-18.32ZM78.49-26.9L78.49-26.9 79.24-26.9 79.24-21.6 84.24-21.6 84.24-20.7 79.24-20.7 79.24-3.75Q79.24-1.05 80.74-1.05L80.74-1.05Q81.44-1.05 81.97-1.7 82.49-2.35 82.49-3.2 82.49-4.05 82.34-4.8L82.34-4.8 83.29-4.95Q83.49-4.2 83.49-3.3L83.49-3.3Q83.49-1.5 82.42-0.45 81.34 0.6 79.59 0.6 77.84 0.6 76.74-0.83 75.64-2.25 75.64-5.1L75.64-5.1 75.64-20Q75.64-20.7 74.94-20.7L74.94-20.7 72.59-20.7 72.59-21.6 75.04-21.6Q76.64-21.6 78.49-26.9ZM90.54-1.6L90.54-1.6 90.54-20Q90.54-20.7 89.84-20.7L89.84-20.7 87.49-20.7 87.49-21.6 89.94-21.6Q92.94-21.6 94.14-21.9L94.14-21.9 94.14-1.5Q94.14-0.9 94.84-0.9L94.84-0.9 97.19-0.9 97.19 0 87.49 0 87.49-0.9 89.84-0.9Q90.54-0.9 90.54-1.6ZM90.67-27.13Q89.99-27.8 89.99-28.8 89.99-29.8 90.67-30.48 91.34-31.15 92.34-31.15 93.34-31.15 94.02-30.48 94.69-29.8 94.69-28.8 94.69-27.8 94.02-27.13 93.34-26.45 92.34-26.45 91.34-26.45 90.67-27.13ZM100.69-10.8Q100.69-16 103.49-19.1 106.29-22.2 110.56-22.2 114.84-22.2 117.84-18.9L117.84-18.9 118.34-22 119.14-22 119.14 9.2Q119.14 9.9 119.84 9.9L119.84 9.9 122.19 9.9 122.19 10.8 119.74 10.8Q116.74 10.8 115.54 11.1L115.54 11.1 115.54-4.9Q114.39-2.2 112.54-0.8 110.69 0.6 108.59 0.6L108.59 0.6Q105.39 0.6 103.04-2.5 100.69-5.6 100.69-10.8ZM104.49-10.93Q104.49-6.3 106.01-3.8 107.54-1.3 109.51-1.3 111.49-1.3 113.09-2.93 114.69-4.55 115.54-7.65L115.54-7.65 115.54-19.35Q113.34-20.7 110.71-20.7 108.09-20.7 106.29-18.13 104.49-15.55 104.49-10.93Z" opacity="1" transform="matrix(1,0,0,1,0,0)" fill="#000000" class="wordmark-text-0" data-fill-palette-color="primary" id="text-0"></path></svg></g></svg></g><g transform="matrix(1,0,0,1,0,69.97526407248192)"><svg viewBox="0 0 92.99189563655533 28.97253438874467" height="28.97253438874467" width="92.99189563655533"><g transform="matrix(1,0,0,1,0,0)"><svg width="92.99189563655533" viewBox="1.6 -29.6 126.29 39.349999999999994" height="28.97253438874467" data-palette-color="#e7a602"><path d="M1.7-18.65L1.7-18.65Q1.6-19.3 1.6-19.45L1.6-19.45Q2.3-23.2 8.95-26.6L8.95-26.6Q14.2-29.05 21.35-29.05L21.35-29.05Q25.75-29.05 30.05-27.85L30.05-27.85Q32.95-26.85 34.45-25 35.95-23.15 35.95-21.25L35.95-21.25Q35.95-18.35 33.65-16.13 31.35-13.9 28.5-12.7L28.5-12.7Q22.15-9.95 14-9.65L14-9.65Q14.65-8.85 16.1-7.03 17.55-5.2 18.3-4.3 19.05-3.4 20.48-1.78 21.9-0.15 22.88 0.73 23.85 1.6 25.35 2.83 26.85 4.05 28.2 4.75L28.2 4.75Q32.9 7.25 36.4 7.25L36.4 7.25 38.1 7.1Q39.8 6.8 40.8 5.73 41.8 4.65 41.8 3.35L41.8 3.35Q41.8 2.85 41.68 2.27 41.55 1.7 42 1.7L42 1.7Q42.5 1.75 42.68 2.43 42.85 3.1 42.85 4.1 42.85 5.1 42.35 6.4L42.35 6.4Q41.8 8.2 39.3 9.15L39.3 9.15Q37.7 9.75 36.3 9.75L36.3 9.75Q32.1 9.75 27.8 7.4L27.8 7.4Q24.95 5.8 22.68 3.43 20.4 1.05 18.88-0.85 17.35-2.75 15.48-5.58 13.6-8.4 12.85-9.35L12.85-9.35 12.5-9.4Q8.7-2.4 8.7-0.95L8.7-0.95Q8.7-0.2 9.35-0.2 10-0.2 11.1-1.58 12.2-2.95 12.6-2.9L12.6-2.9Q12.9-2.6 11.95-1.6L11.95-1.6Q11.85-1.5 11.6-1.07 11.35-0.65 11.18-0.4 11-0.15 10.7 0.25 10.4 0.65 10.15 0.9 9.9 1.15 9.6 1.4L9.6 1.4Q9 1.9 8.55 1.9 8.1 1.9 7.3 1.73 6.5 1.55 6.5 1.05L6.5 1.05Q6.5-1.2 10.6-9.4L10.6-9.4Q8.95-9.55 8.95-10.6L8.95-10.6Q8.95-10.8 9-11.1L9-11.1Q9.35-11.95 10.28-11.95 11.2-11.95 11.75-11.5L11.75-11.5Q12.15-12.3 12.7-13.3L12.7-13.3Q14.65-16.8 14.65-17.75L14.65-17.75Q14.65-18 14.6-18.25L14.6-18.25Q14.8-19.65 17.03-21.93 19.25-24.2 21.05-24.2L21.05-24.2Q21.65-24.2 22.65-23.75 23.65-23.3 23.85-22.5L23.85-22.5Q23.9-22.15 23.88-22.08 23.85-22 23.6-22.1 23.35-22.2 23.3-22.2L23.3-22.2Q19.8-22.2 13.3-10.85L13.3-10.85Q13.9-10.6 14.48-10.6 15.05-10.6 15.45-10.65L15.45-10.65Q20.55-11.2 25.43-13.05 30.3-14.9 33-17.7L33-17.7Q34.75-19.4 34.75-21.3L34.75-21.3Q34.75-26.9 23.3-26.9L23.3-26.9Q16.75-26.9 10.8-24.9L10.8-24.9Q7.7-23.8 5.53-21.95 3.35-20.1 2.95-17.75L2.95-17.75Q2.9-17.5 2.9-17.1 2.9-16.7 3.23-16.13 3.55-15.55 4-15.25 4.45-14.95 5.28-14.55 6.1-14.15 6.38-13.95 6.65-13.75 6.5-13.53 6.35-13.3 5.85-13.4L5.85-13.4Q4.3-13.65 2.95-14.95 1.6-16.25 1.6-17.75L1.6-17.75Q1.6-18.2 1.7-18.65ZM40.5-14.55L40.5-14.55Q43.2-14.55 43.2-11.95L43.2-11.95Q43.2-10.6 42.45-9.75L42.45-9.75Q41.2-7.9 38.4-6.53 35.6-5.15 33.65-5L33.65-5Q32.95-4.95 32.9-5.4L32.9-5.4Q32.85-5.6 33.02-5.65 33.2-5.7 33.3-5.7L33.3-5.7Q34.45-5.8 36.25-6.8L36.25-6.8Q39.6-8.6 41.15-10.5L41.15-10.5Q41.8-11.4 41.8-12.23 41.8-13.05 41-13.05L41-13.05Q40.35-13.05 39.25-12.5L39.25-12.5Q36.9-11.4 34.3-8.68 31.7-5.95 30.9-3.35L30.9-3.35Q30.65-2.55 30.65-1.78 30.65-1 31.3-0.3 31.95 0.4 33.3 0.4L33.3 0.4Q34.8 0.4 36.75-0.4L36.75-0.4Q42.4-2.7 45.45-7.35L45.45-7.35Q45.75-7.75 46-7.5L46-7.5Q46.2-7.4 46.2-7.25 46.2-7.1 46.05-6.9L46.05-6.9Q44.55-4.4 42.25-2.45L42.25-2.45Q37.8 1.35 33.6 1.35L33.6 1.35Q30 1.35 28.55-0.8L28.55-0.8Q28-1.65 28-2.85 28-4.05 28.65-5.7L28.65-5.7Q29.9-8.55 34-11.55 38.1-14.55 40.5-14.55ZM58.8-14.2L58.8-14.2Q59.95-14.2 59.95-12.98 59.95-11.75 58.8-9.6 57.65-7.45 57.1-6.1L57.1-6.1Q56.15-3.8 56.15-2.43 56.15-1.05 56.55-0.6L56.55-0.6Q57.3 0.2 58.6-0.53 59.9-1.25 62.22-3.33 64.55-5.4 65.95-7.4L65.95-7.4Q66.15-7.65 66.42-7.53 66.7-7.4 66.7-7.28 66.7-7.15 66.59-7L66.59-7Q65.84-5.65 63.9-3.55 61.95-1.45 60.15-0.18 58.35 1.1 56.6 1.1L56.6 1.1Q54.9 1.05 54.2 0.33 53.5-0.4 53.5-1.5 53.5-2.6 53.7-3.63 53.9-4.65 54.45-6L54.45-6Q55.35-8.15 56.02-9.35 56.7-10.55 56.7-10.93 56.7-11.3 56.3-11.3L56.3-11.3Q55.5-11.3 53.25-9.35L53.25-9.35Q51.7-7.9 48.67-3.88 45.65 0.15 45.25 0.4L45.25 0.4Q43.45 1.3 43 1.3 42.55 1.3 42.55 1.15 42.55 1 42.65 0.73 42.75 0.45 43.62-2 44.5-4.45 45.52-7.38 46.55-10.3 46.77-10.9 47-11.5 47.07-11.93 47.15-12.35 47.25-12.65 47.35-12.95 47.62-13.33 47.9-13.7 48.35-13.73 48.8-13.75 49.5-13.63 50.2-13.5 50.2-13L50.2-13Q50.2-12.65 49.65-11.48 49.1-10.3 46.5-3.4L46.5-3.4Q48.3-5.6 51.05-8.47 53.8-11.35 55.7-12.85L55.7-12.85Q57.6-14.2 58.8-14.2ZM72.69-13.95L73.34-14Q77.19-14.35 78.02-14.35 78.84-14.35 78.84-14.1L78.84-14.1Q78.84-13.8 77.67-13.48 76.49-13.15 71.94-12.65L71.94-12.65Q71.69-12.2 71.34-11.6L71.34-11.6Q70.59-10.4 70.54-10.15L70.54-10.15Q67.69-4.45 67.54-2.9L67.54-2.9Q67.49-2.45 67.49-1.75 67.49-1.05 67.89-0.6L67.89-0.6Q68.59 0.2 69.89-0.5 71.19-1.2 73.52-3.3 75.84-5.4 77.29-7.4L77.29-7.4Q77.49-7.65 77.79-7.5L77.79-7.5Q78.54-7.15 75.19-3.55L75.19-3.55Q71.99-0.1 69.84 0.7L69.84 0.7Q68.59 1.15 67.74 1.15L67.74 1.15Q65.74 1.15 65.09-0.75L65.09-0.75Q64.99-1.1 64.99-1.6L64.99-1.6Q64.99-3.35 66.59-6.9L66.59-6.9Q66.34-6.35 64.64-4.4L64.64-4.4Q64.19-3.9 63.94-4.4L63.94-4.4Q63.89-4.5 63.89-4.67 63.89-4.85 64.09-5.1L64.09-5.1Q66.54-8.15 67.94-10.25L67.94-10.25Q67.94-10.3 69.04-12.35L69.04-12.35Q68.54-12.25 68.02-12.25 67.49-12.25 67.24-12.58 66.99-12.9 67.19-13.35L67.19-13.35Q67.54-14.15 69.84-14.25L69.84-14.25Q69.89-14.35 70.04-14.35L70.04-14.35 72.54-19Q72.74-19.4 72.99-19.83 73.24-20.25 73.37-20.48 73.49-20.7 73.64-20.95 73.79-21.2 73.89-21.3 73.99-21.4 74.09-21.5L74.09-21.5Q74.29-21.8 75.27-21.8 76.24-21.8 76.59-21.25L76.59-21.25Q76.74-21.05 76.74-20.58 76.74-20.1 76.39-19.53 76.04-18.95 75.64-18.7 75.24-18.45 75.09-18.15L75.09-18.15 72.69-13.95ZM79.14 0.55L79.14 0.55Q78.34 0.55 77.42 0.08 76.49-0.4 75.84-1.28 75.19-2.15 75.19-3.15 75.19-4.15 75.64-5.05L75.64-5.05Q76.64-7.15 78.87-9.13 81.09-11.1 83.49-12.5 85.89-13.9 87.29-14.25 88.69-14.6 90.02-14.6 91.34-14.6 92.29-13.93 93.24-13.25 93.24-12.5L93.24-12.5Q93.24-12.25 93.19-12.2 93.14-12.15 92.94-12.25L92.94-12.25Q92.34-13.2 90.47-13.2 88.59-13.2 86.22-11.98 83.84-10.75 81.74-8.9L81.74-8.9Q79.99-7.25 78.67-5.18 77.34-3.1 77.34-2.15L77.34-2.15Q77.34-0.3 78.39-0.3 79.44-0.3 81.59-2L81.59-2Q85.14-5 86.44-6.4L86.44-6.4Q91.04-11.35 91.39-11.35L91.39-11.35Q91.99-11.35 92.84-11 93.69-10.65 93.39-10.15L93.39-10.15Q90.84-6.55 90.39-2.9L90.39-2.9Q90.34-2.45 90.34-1.75 90.34-1.05 90.74-0.6L90.74-0.6Q91.49 0.2 92.79-0.5 94.09-1.2 96.42-3.3 98.74-5.4 100.14-7.4L100.14-7.4Q100.34-7.65 100.59-7.53 100.84-7.4 100.84-7.3L100.84-7.3Q100.84-6.55 98.47-4.03 96.09-1.5 94.84-0.6L94.84-0.6Q92.49 1.15 90.49 1.15L90.49 1.15Q88.59 1.15 87.94-0.75L87.94-0.75Q87.79-1.35 87.79-2.1L87.79-2.1Q87.79-4.35 88.74-6.85L88.74-6.85Q88.54-6.75 86.89-4.85 85.24-2.95 83.07-1.2 80.89 0.55 79.14 0.55ZM116.84-25.5L116.84-25.5Q117.44-26.6 117.44-27.2L117.44-27.2Q117.44-28.25 116.59-28.25L116.59-28.25Q115.89-28.25 114.84-27.45L114.84-27.45Q110.84-24.35 107.09-17.65L107.09-17.65Q104.09-12.25 102.69-8.4L102.69-8.4Q106.14-10.75 110.41-16.05 114.69-21.35 116.84-25.5ZM101.94-6.4L101.94-6.4Q101.34-4.7 101.29-4.13 101.24-3.55 101.24-2.58 101.24-1.6 101.74-0.8L101.74-0.8Q102.59 0.55 104.59-0.6L104.59-0.6Q106.09-1.4 108.39-3.53 110.69-5.65 111.94-7.4L111.94-7.4Q112.04-7.55 112.24-7.55L112.24-7.55Q112.69-7.55 112.49-6.9L112.49-6.9Q111.74-5.55 109.71-3.45 107.69-1.35 106.04-0.13 104.39 1.1 102.74 1.1L102.74 1.1Q98.94 1.1 98.94-2.6L98.94-2.6Q98.94-2.75 98.94-2.9L98.94-2.9Q99.14-6.4 102.49-13.48 105.84-20.55 108.54-24.15L108.54-24.15 110.09-26.1Q110.64-26.75 111.69-27.7L111.69-27.7Q113.69-29.6 115.81-29.6 117.94-29.6 118.69-28.3L118.69-28.3Q118.94-27.85 118.94-27 118.94-26.15 118.19-24.6L118.19-24.6Q113.04-15.65 101.94-6.4ZM111.74 0.5L111.74 0.5Q111.09 1.25 111.46 1.7 111.84 2.15 112.31 2.15 112.79 2.15 113.29 2L113.29 2Q115.44 1.35 117.46-0.58 119.49-2.5 119.49-4.5L119.49-4.5Q119.49-5.6 117.04-6.9L117.04-6.9Q115.89-7.5 115.74-7.6L115.74-7.6Q114.39-8.5 114.04-9.4L114.04-9.4Q113.34-8.2 111.79-5.95L111.79-5.95Q111.44-5.55 111.14-5.78 110.84-6 111.09-6.4L111.09-6.4Q113.14-9.2 113.79-11.1L113.79-11.1Q114.14-13.85 117.79-16.05 121.44-18.25 124.44-18.25L124.44-18.25Q126.34-18.25 127.11-17.57 127.89-16.9 127.89-16.25 127.89-15.6 127.51-14.75 127.14-13.9 125.99-13.15L125.99-13.15Q125.69-12.95 125.49-13.25L125.49-13.25Q125.39-13.55 125.91-14.08 126.44-14.6 126.59-15.5 126.74-16.4 125.79-16.6L125.79-16.6Q125.64-16.6 125.49-16.6L125.49-16.6Q123.54-16.6 120.61-15.15 117.69-13.7 116.04-11.4L116.04-11.4Q115.39-10.55 115.39-9.68 115.39-8.8 116.59-8.1L116.59-8.1Q117.09-7.8 118.29-7.15 119.49-6.5 119.99-6.2 120.49-5.9 121.19-5.25 121.89-4.6 121.94-4.05L121.94-4.05Q122.19-2.55 120.54-0.75L120.54-0.75Q118.19 1.85 113.54 2.9L113.54 2.9Q112.49 3.15 111.41 3.15 110.34 3.15 109.94 2.35L109.94 2.35Q109.79 2.15 109.79 1.73 109.79 1.3 110.59 0.35L110.59 0.35Q111.34-0.4 112.99-1.1L112.99-1.1Q113.14-1.15 113.24-1.05 113.34-0.95 113.29-0.8 113.24-0.65 112.76-0.45 112.29-0.25 111.74 0.5Z" opacity="1" transform="matrix(1,0,0,1,0,0)" fill="#000000" class="slogan-text-1" data-fill-palette-color="secondary" id="text-1"></path></svg></g></svg></g></svg></g></svg></g><g transform="matrix(1,0,0,1,0,0.7781657601582879)"><svg viewBox="0 0 97.88620593321615 97.88620593321615" height="97.88620593321615" width="97.88620593321615"><g><svg xmlns="http://www.w3.org/2000/svg" xmlns:xlink="http://www.w3.org/1999/xlink" version="1.1" x="0" y="0" viewBox="0 0 100 100" enable-background="new 0 0 100 100" xml:space="preserve" height="97.88620593321615" width="97.88620593321615" class="icon-icon-0" data-fill-palette-color="accent" id="icon-0"><g fill="#e7a602" data-fill-palette-color="accent"><circle cx="29.861" cy="63.194" r="2.1" fill="#000000" data-fill-palette-color="accent"></circle><path d="M34.722 51.389h9.722v-6.396c-2.032 0.299-5.976 1.152-5.976 1.152L34.722 51.389z" fill="#000000" data-fill-palette-color="accent"></path><circle cx="68.75" cy="63.194" r="2.1" fill="#000000" data-fill-palette-color="accent"></circle><path d="M50 13.889c-19.946 0-36.111 16.165-36.111 36.111S30.054 86.111 50 86.111 86.111 69.946 86.111 50 69.946 13.889 50 13.889zM41.521 20.833c2.686-0.005 5.013 1.474 6.258 3.666l13.852-0.021 3.646 3.645-3.646 3.647-1.823-1.823-1.822 1.823-1.822-1.823-1.819 1.823-1.822-1.823-1.821 1.823-2.93-0.022c-1.247 2.188-3.578 3.664-6.25 3.667-3.027-0.004-5.612-1.888-6.684-4.557h2.192c1.51 0 2.734-1.226 2.734-2.734 0-1.511-1.225-2.734-2.734-2.734h-2.203C35.902 22.716 38.49 20.828 41.521 20.833zM29.861 68.056c-2.685 0-4.861-2.176-4.861-4.861s2.177-4.861 4.861-4.861c2.684 0 4.861 2.176 4.861 4.861S32.545 68.056 29.861 68.056zM68.75 68.056c-2.685 0-4.861-2.176-4.861-4.861s2.177-4.861 4.861-4.861 4.861 2.176 4.861 4.861S71.435 68.056 68.75 68.056zM75.624 62.5c-0.353-3.505-3.275-6.25-6.874-6.25s-6.521 2.745-6.874 6.25H36.735c-0.353-3.505-3.275-6.25-6.874-6.25-3.599 0-6.521 2.745-6.874 6.25h-2.154v-6.944l1.389-4.167c2.778 0 9.235-5.487 12.5-6.944 1.426-0.636 3.729-1.207 6.15-1.666 1.193-0.227 2.41-0.424 3.572-0.588 0.99-0.139 1.932-0.254 2.778-0.339 1.157-0.118 2.136-0.185 2.778-0.185L63.889 50c0 0 3.791 0.003 7.609 1.389 3.491 1.267 7.006 3.689 7.669 8.334 0 0 0 2.042 0 2.777H75.624z" fill="#000000" data-fill-palette-color="accent"></path><path d="M47.222 44.637v6.751H60.81l-11.543-6.922C48.697 44.496 47.997 44.554 47.222 44.637z" fill="#000000" data-fill-palette-color="accent"></path></g><path d="M95.706 29.764L90.51 32.15c2.418 5.465 3.771 11.5 3.771 17.851C94.281 74.417 74.417 94.28 50 94.28c-12.208 0-23.271-4.974-31.288-12.992l3.51-3.511H11.111v11.111l3.559-3.558C23.722 94.384 36.214 100 50 100c27.57 0 50-22.429 50-49.999C100 42.799 98.458 35.955 95.706 29.764z" fill="#000000" data-fill-palette-color="accent"></path><path d="M4.294 70.236L9.49 67.85c-2.418-5.465-3.772-11.501-3.772-17.851C5.718 25.583 25.583 5.72 50 5.72c12.208 0 23.271 4.974 31.288 12.992l-3.511 3.51h11.111V11.111l-3.559 3.558C76.277 5.617 63.786 0 50 0 22.43 0 0 22.428 0 49.999 0 57.201 1.542 64.045 4.294 70.236z" fill="#000000" data-fill-palette-color="accent"></path></svg></g></svg></g></svg></g></svg></g><g><path d="M31.42 94.91l-4.854 13.956-0.759-0.264 0.687-1.973c0.139-0.398 0.012-0.666-0.381-0.803v0l-23.957-8.332c-0.335-0.117-0.572 0.024-0.711 0.423v0l-0.686 1.974-0.759-0.264 4.646-13.359c0.774-2.227 1.191-3.833 1.251-4.819v0c1.063 0.653 2.623 1.338 4.678 2.052v0l1.983 0.69-0.336 0.968-4.529-0.863c-0.64-0.159-1.087 0.129-1.342 0.863v0l-3.079 8.852 11.518 4.006 2.947-8.473c0.119-0.342-0.008-0.609-0.38-0.802v0l-2.546-1.12 0.264-0.759 7.59 2.64-0.264 0.759-2.691-0.702c-0.412-0.079-0.677 0.052-0.796 0.393v0l-2.947 8.473 11.518 4.006 3.287-9.45c0.253-0.727 0.079-1.227-0.521-1.5v0l-4.712-2.351 0.336-0.968 1.983 0.69c2.473 0.86 4.329 1.364 5.569 1.511v0c-0.565 0.81-1.234 2.325-2.007 4.546z" fill="#000000" data-fill-palette-color="accent"></path><path d="M54.227 34.456l-0.521-0.612 4.555-3.885 0.521 0.611-1.261 1.076c-0.25 0.213-0.358 0.499-0.324 0.858v0l1.107 9.208 10.012 3.489c0.274 0.083 0.512 0.038 0.716-0.135v0l1.391-1.187 0.522 0.612-1.598 1.362c-1.085 0.926-1.842 1.69-2.27 2.292v0l-9.187-3.202 1.084 8.701 1.735-1.48 0.521 0.612-4.555 3.885-0.522-0.612 1.261-1.075c0.25-0.213 0.358-0.499 0.325-0.858v0l-1.173-9.627-9.61-3.357c-0.269-0.088-0.505-0.045-0.708 0.129v0l-1.399 1.193-0.522-0.612 1.598-1.362c1.09-0.93 1.847-1.694 2.27-2.292v0l8.784 3.07-1.017-8.282z" fill="#000000" data-fill-palette-color="accent"></path><path d="M110.264 24.158c-2.003-1.436-3.326-3.698-3.971-6.786-0.644-3.088-0.335-5.69 0.927-7.808 1.262-2.117 3.204-3.449 5.826-3.996 2.622-0.547 4.942-0.104 6.958 1.33 2.016 1.433 3.346 3.694 3.99 6.782 0.644 3.088 0.329 5.692-0.946 7.811-1.275 2.12-3.224 3.453-5.847 4-2.622 0.547-4.935 0.102-6.937-1.333zM109.818 9.771c-0.711 1.838-0.778 4.14-0.201 6.907 0.577 2.767 1.559 4.85 2.945 6.251 1.387 1.401 2.867 1.937 4.441 1.609 1.573-0.328 2.722-1.413 3.446-3.254 0.724-1.841 0.798-4.144 0.221-6.911-0.577-2.767-1.565-4.849-2.965-6.246-1.4-1.398-2.886-1.933-4.46-1.605-1.573 0.328-2.716 1.411-3.427 3.249z" fill="#000000" data-fill-palette-color="accent"></path><path d="M179.766 4.644v0l0.646 0.19-1.337 4.539 4.278 1.26-0.227 0.771-4.278-1.26-4.277 14.522c-0.454 1.542-0.254 2.438 0.6 2.69v0c0.405 0.119 0.81 0.036 1.215-0.25 0.412-0.284 0.688-0.666 0.83-1.148 0.144-0.488 0.237-0.96 0.281-1.415v0l0.846 0.113c-0.011 0.464-0.092 0.954-0.244 1.468v0c-0.303 1.028-0.85 1.75-1.643 2.165-0.786 0.418-1.68 0.479-2.682 0.184-0.996-0.293-1.689-0.937-2.081-1.932-0.389-1.001-0.345-2.315 0.135-3.94v0l3.76-12.768c0.117-0.398-0.023-0.656-0.421-0.773v0l-2.014-0.593 0.227-0.771 2.101 0.618c0.912 0.269 2.341-0.955 4.285-3.67z" fill="#000000" data-fill-palette-color="accent"></path><path d="M217.895 51.34v0l10.927-12.276c0.276-0.31 0.259-0.603-0.051-0.879v0l-1.568-1.396 0.534-0.6 1.636 1.456c1.331 1.184 2.324 1.947 2.979 2.289v0l-12.116 13.611c-0.236 0.265-0.199 0.536 0.111 0.811v0l1.569 1.396-0.535 0.601-6.468-5.758 0.535-0.6 1.568 1.396c0.31 0.276 0.603 0.259 0.879-0.051zM233.133 34.388c-0.033-0.567 0.149-1.074 0.545-1.519 0.396-0.445 0.878-0.684 1.445-0.717 0.567-0.033 1.074 0.149 1.519 0.545 0.445 0.396 0.684 0.878 0.717 1.446 0.033 0.567-0.149 1.074-0.545 1.518-0.396 0.445-0.878 0.684-1.445 0.718-0.567 0.033-1.074-0.149-1.519-0.545-0.445-0.396-0.684-0.878-0.717-1.446z" fill="#000000" data-fill-palette-color="accent"></path><path d="M254.479 88.082c2.9-1.077 5.507-1.156 7.821-0.236 2.307 0.922 3.903 2.576 4.789 4.962 0.886 2.386 0.719 4.755-0.5 7.108v0l2.756-0.542 0.249 0.669-26.124 9.7c-0.389 0.145-0.512 0.411-0.367 0.801v0l0.731 1.968-0.753 0.28-0.763-2.053c-0.622-1.676-1.142-2.816-1.558-3.418v0l13.4-4.976c-1.745-0.081-3.201-0.494-4.37-1.238-1.161-0.741-1.959-1.698-2.396-2.872v0c-0.662-1.783-0.373-3.651 0.866-5.604 1.246-1.956 3.319-3.472 6.219-4.549zM255.765 91.226c-2.58 0.958-4.41 2.12-5.489 3.485-1.077 1.371-1.411 2.606-1.003 3.705 0.41 1.105 1.233 1.935 2.468 2.491 1.235 0.556 2.808 0.751 4.717 0.585v0l9.794-3.637c0.296-1.51 0.173-2.997-0.37-4.46-0.543-1.463-1.72-2.43-3.531-2.9-1.811-0.471-4.006-0.227-6.586 0.731z" fill="#000000" data-fill-palette-color="accent"></path><path d="M12.661 191.878l-4.939-14.151 0.768-0.268 0.702 2.011c0.139 0.398 0.408 0.528 0.806 0.389v0l24.289-8.478c0.341-0.119 0.443-0.378 0.303-0.777v0l-0.701-2.01 0.768-0.268 4.73 13.553c0.786 2.251 1.467 3.786 2.045 4.606v0c-1.258 0.155-2.927 0.596-5.008 1.322v0l-2.01 0.702-0.345-0.986 4.138-2.168c0.606-0.275 0.78-0.783 0.522-1.523v0l-3.135-8.981-11.675 4.075 3.002 8.602c0.119 0.341 0.388 0.471 0.806 0.389v0l2.729-0.718 0.268 0.768-7.701 2.688-0.269-0.768 2.583-1.136c0.378-0.196 0.508-0.465 0.389-0.806v0l-3.002-8.602-11.676 4.075 3.344 9.579c0.258 0.74 0.71 1.029 1.356 0.867v0l5.233-1.103 0.344 0.987-2.011 0.702c-2.51 0.876-4.306 1.645-5.387 2.306v0c-0.059-1.001-0.481-2.627-1.266-4.878z" fill="#000000" data-fill-palette-color="accent"></path><path d="M65.58 232.525l0.527-0.62 4.621 3.932-0.527 0.62-1.27-1.081c-0.255-0.217-0.562-0.28-0.92-0.189v0l-9.041 2.595-1.876 10.591c-0.044 0.279 0.039 0.508 0.248 0.686v0l1.415 1.204-0.527 0.62-1.622-1.38c-1.102-0.937-1.989-1.574-2.663-1.909v0l1.727-9.703-8.536 2.484 1.759 1.497-0.527 0.62-4.621-3.932 0.527-0.62 1.27 1.081c0.255 0.217 0.559 0.278 0.913 0.183v0l9.451-2.721 1.817-10.166c0.039-0.283-0.044-0.512-0.247-0.686v0l-1.416-1.204 0.528-0.62 1.622 1.38c1.102 0.937 1.989 1.574 2.662 1.909v0l-1.661 9.284 8.126-2.358z" fill="#000000" data-fill-palette-color="accent"></path><path d="M107.129 271.079c-1.284-2.148-1.601-4.789-0.95-7.923 0.651-3.134 1.993-5.431 4.026-6.89 2.027-1.46 4.371-1.914 7.034-1.36 2.662 0.553 4.639 1.904 5.93 4.053 1.298 2.15 1.621 4.793 0.969 7.927-0.651 3.134-2 5.429-4.046 6.885-2.04 1.457-4.391 1.909-7.053 1.357-2.662-0.553-4.632-1.903-5.91-4.049zM112.531 257.519c-1.403 1.419-2.395 3.531-2.979 6.337-0.584 2.813-0.515 5.149 0.207 7.01 0.722 1.86 1.883 2.956 3.482 3.288 1.593 0.331 3.101-0.211 4.524-1.626 1.416-1.416 2.416-3.53 3-6.343 0.583-2.806 0.507-5.141-0.228-7.003-0.741-1.864-1.909-2.961-3.502-3.293-1.6-0.332-3.101 0.211-4.504 1.63z" fill="#000000" data-fill-palette-color="accent"></path><path d="M171.788 248.087v0l0.655-0.193 1.359 4.605 4.345-1.282 0.23 0.781-4.345 1.282 4.343 14.722c0.46 1.561 1.124 2.213 1.991 1.957v0c0.405-0.119 0.703-0.41 0.895-0.871 0.197-0.47 0.222-0.952 0.076-1.447-0.144-0.488-0.325-0.937-0.544-1.347v0l0.791-0.37c0.243 0.396 0.441 0.855 0.594 1.375v0c0.309 1.047 0.241 1.964-0.204 2.752-0.443 0.794-1.172 1.341-2.187 1.64-1.015 0.299-1.962 0.132-2.84-0.503-0.88-0.641-1.564-1.787-2.051-3.438v0l-3.816-12.94c-0.119-0.405-0.381-0.547-0.786-0.428v0l-2.043 0.603-0.23-0.781 2.129-0.628c0.925-0.273 1.471-2.103 1.638-5.489z" fill="#000000" data-fill-palette-color="accent"></path><path d="M229.176 241.504v0l-11.069-12.458c-0.28-0.315-0.578-0.333-0.894-0.052v0l-1.592 1.414-0.54-0.608 1.659-1.475c1.352-1.201 2.238-2.109 2.659-2.724v0l12.27 13.809c0.24 0.27 0.521 0.263 0.841-0.022v0l1.585-1.407 0.54 0.608-6.563 5.832-0.54-0.609 1.591-1.414c0.315-0.28 0.333-0.578 0.053-0.894zM213.899 224.145c-0.572-0.029-1.061-0.271-1.466-0.727-0.4-0.451-0.584-0.964-0.549-1.541 0.038-0.572 0.283-1.058 0.733-1.458 0.451-0.4 0.962-0.586 1.535-0.557 0.577 0.034 1.065 0.276 1.465 0.727 0.405 0.456 0.588 0.969 0.55 1.541-0.034 0.577-0.276 1.065-0.727 1.465-0.451 0.4-0.964 0.584-1.541 0.55z" fill="#000000" data-fill-palette-color="accent"></path><path d="M254.859 192.38c-2.943-1.097-4.994-2.766-6.152-5.006-1.167-2.236-1.299-4.566-0.396-6.988 0.901-2.416 2.603-4.125 5.107-5.129v0l-2.468-1.403 0.253-0.677 26.467 9.87c0.402 0.15 0.676 0.027 0.823-0.369v0l0.745-1.995 0.762 0.284-0.776 2.08c-0.634 1.7-0.993 2.921-1.076 3.662v0l-13.582-5.065c1.288 1.224 2.133 2.504 2.535 3.84 0.4 1.343 0.379 2.607-0.063 3.793v0c-0.676 1.813-2.138 3.059-4.385 3.737-2.253 0.675-4.851 0.464-7.794-0.634zM255.96 189.113c2.617 0.976 4.791 1.297 6.523 0.964 1.741-0.337 2.82-1.064 3.236-2.181 0.416-1.117 0.332-2.299-0.253-3.547-0.577-1.251-1.655-2.443-3.234-3.575v0l-9.93-3.703c-1.223 0.959-2.111 2.183-2.666 3.67-0.555 1.487-0.293 3.01 0.784 4.57 1.077 1.559 2.923 2.827 5.54 3.802z" fill="#000000" data-fill-palette-color="accent"></path><path d="M1.651 140.003c0-6.019 4.879-10.898 10.898-10.898 6.019 0 10.898 4.879 10.898 10.898 0 6.019-4.879 10.898-10.898 10.898-6.019 0-10.898-4.879-10.898-10.898z" fill="#000000" data-fill-palette-color="accent"></path><path d="M254.801 140.003c0-6.019 4.879-10.898 10.898-10.898 6.019 0 10.898 4.879 10.898 10.898 0 6.019-4.879 10.898-10.898 10.898-6.019 0-10.898-4.879-10.898-10.898z" fill="#000000" data-fill-palette-color="accent"></path></g></svg></g><defs></defs></svg><rect width="280" height="280" fill="none" stroke="none" visibility="hidden"></rect></g></svg></g></svg>