<svg width="26" height="26" viewBox="0 0 26 26" fill="none" xmlns="http://www.w3.org/2000/svg">
<path d="M9.49862 2.37414C10.615 2.22139 11.5532 2.90443 11.9973 3.79222L13.0899 5.97676C13.696 7.18901 13.3477 8.61143 12.429 9.50626C11.8863 10.0344 11.3408 10.6378 11.0245 11.1703C11.0035 11.2082 10.997 11.2525 11.0061 11.2948C11.2986 12.8798 12.3727 14.4457 13.3309 15.5686C13.3791 15.6221 13.442 15.6603 13.5117 15.6783C13.5815 15.6963 13.655 15.6934 13.7231 15.6699L15.8762 14.9971C16.4562 14.8159 17.079 14.8251 17.6534 15.0236C18.2277 15.2221 18.7234 15.5993 19.0677 16.1L20.6261 18.3663C21.0486 18.9816 21.2625 19.8158 20.9386 20.618C20.6494 21.3346 20.0898 22.3681 19.072 23.0555C18.0158 23.7683 16.569 24.0392 14.6759 23.3903C12.5607 22.6644 10.5625 20.8444 8.9055 18.5169C7.23879 16.1747 5.86675 13.2492 5.03475 10.1985C4.24879 7.31793 4.72329 5.37876 5.8402 4.13022C6.91758 2.92555 8.46133 2.5166 9.49862 2.37414ZM10.7862 4.3978C10.5386 3.90326 10.0972 3.65897 9.68279 3.71585C8.76141 3.8426 7.60766 4.18547 6.84987 5.03318C6.13162 5.83647 5.63437 7.2513 6.34071 9.8421C7.13425 12.7498 8.44075 15.5285 10.0089 17.7315C11.5867 19.9485 13.3797 21.5139 15.1152 22.1092C16.6616 22.6395 17.6556 22.3773 18.3142 21.9332C19.0108 21.4625 19.4393 20.7144 19.683 20.111C19.7946 19.8348 19.7464 19.4773 19.5102 19.1338L17.9519 16.8675C17.7716 16.6052 17.512 16.4076 17.2111 16.3036C16.9103 16.1996 16.5841 16.1947 16.2803 16.2896L14.1272 16.9623C13.4837 17.1633 12.7589 16.984 12.3012 16.4477C11.304 15.2793 10.0332 13.4875 9.67412 11.5402C9.60548 11.1753 9.67169 10.7978 9.86046 10.478C10.271 9.78793 10.921 9.0843 11.4838 8.53614C12.0336 8.00097 12.1896 7.20472 11.8787 6.58235L10.7862 4.3978Z" fill="#E7A602"/>
</svg>
