<svg width="16" height="17" viewBox="0 0 16 17" fill="none" xmlns="http://www.w3.org/2000/svg">
<g clip-path="url(#clip0_22_214)">
<path d="M3.99999 2.83329C3.99999 3.20902 3.85952 3.56935 3.60947 3.83503C3.35942 4.1007 3.02028 4.24996 2.66666 4.24996C2.31304 4.24996 1.9739 4.1007 1.72385 3.83503C1.4738 3.56935 1.33333 3.20902 1.33333 2.83329C1.33333 2.45757 1.4738 2.09723 1.72385 1.83156C1.9739 1.56588 2.31304 1.41663 2.66666 1.41663C3.02028 1.41663 3.35942 1.56588 3.60947 1.83156C3.85952 2.09723 3.99999 2.45757 3.99999 2.83329ZM3.99999 14.1666C3.99999 14.5423 3.85952 14.9027 3.60947 15.1684C3.35942 15.434 3.02028 15.5833 2.66666 15.5833C2.31304 15.5833 1.9739 15.434 1.72385 15.1684C1.4738 14.9027 1.33333 14.5423 1.33333 14.1666C1.33333 13.7909 1.4738 13.4306 1.72385 13.1649C1.9739 12.8992 2.31304 12.75 2.66666 12.75C3.02028 12.75 3.35942 12.8992 3.60947 13.1649C3.85952 13.4306 3.99999 13.7909 3.99999 14.1666ZM9.33333 14.1666C9.33333 14.5423 9.19285 14.9027 8.9428 15.1684C8.69275 15.434 8.35362 15.5833 7.99999 15.5833C7.64637 15.5833 7.30723 15.434 7.05719 15.1684C6.80714 14.9027 6.66666 14.5423 6.66666 14.1666C6.66666 13.7909 6.80714 13.4306 7.05719 13.1649C7.30723 12.8992 7.64637 12.75 7.99999 12.75C8.35362 12.75 8.69275 12.8992 8.9428 13.1649C9.19285 13.4306 9.33333 13.7909 9.33333 14.1666ZM9.33333 2.83329C9.33333 3.20902 9.19285 3.56935 8.9428 3.83503C8.69275 4.1007 8.35362 4.24996 7.99999 4.24996C7.64637 4.24996 7.30723 4.1007 7.05719 3.83503C6.80714 3.56935 6.66666 3.20902 6.66666 2.83329C6.66666 2.45757 6.80714 2.09723 7.05719 1.83156C7.30723 1.56588 7.64637 1.41663 7.99999 1.41663C8.35362 1.41663 8.69275 1.56588 8.9428 1.83156C9.19285 2.09723 9.33333 2.45757 9.33333 2.83329ZM14.6667 2.83329C14.6667 3.20902 14.5262 3.56935 14.2761 3.83503C14.0261 4.1007 13.6869 4.24996 13.3333 4.24996C12.9797 4.24996 12.6406 4.1007 12.3905 3.83503C12.1405 3.56935 12 3.20902 12 2.83329C12 2.45757 12.1405 2.09723 12.3905 1.83156C12.6406 1.56588 12.9797 1.41663 13.3333 1.41663C13.6869 1.41663 14.0261 1.56588 14.2761 1.83156C14.5262 2.09723 14.6667 2.45757 14.6667 2.83329Z" stroke="#545454" stroke-width="1.5625"/>
<path d="M2.66666 4.25V12.75M7.99999 4.25V12.75M13.3333 4.25V5.66667C13.3333 7.00258 13.3333 7.66983 12.9427 8.08492C12.552 8.5 11.924 8.5 10.6667 8.5H2.66666" stroke="#545454" stroke-width="1.5625" stroke-linecap="round"/>
<path d="M12 10.625V10.0938C11.8674 10.0938 11.7402 10.1497 11.6464 10.2493C11.5527 10.349 11.5 10.4841 11.5 10.625H12ZM11.5 15.5833C11.5 15.7242 11.5527 15.8594 11.6464 15.959C11.7402 16.0586 11.8674 16.1146 12 16.1146C12.1326 16.1146 12.2598 16.0586 12.3536 15.959C12.4473 15.8594 12.5 15.7242 12.5 15.5833H11.5ZM14.24 15.861C14.2743 15.9205 14.3193 15.9723 14.3725 16.0133C14.4256 16.0544 14.4859 16.0839 14.5498 16.1002C14.6136 16.1165 14.6799 16.1193 14.7448 16.1084C14.8097 16.0975 14.872 16.0731 14.928 16.0367C14.984 16.0002 15.0328 15.9524 15.0714 15.8959C15.11 15.8394 15.1378 15.7754 15.1532 15.7075C15.1685 15.6397 15.1711 15.5692 15.1609 15.5003C15.1506 15.4313 15.1277 15.3652 15.0933 15.3057L14.24 15.861ZM12 11.1563H13.524V10.0938H12V11.1563ZM12.5 13.1042V10.625H11.5V13.1042H12.5ZM14.1667 11.8646C14.1667 12.2662 13.8693 12.5729 13.524 12.5729V13.6354C14.4407 13.6354 15.1667 12.8322 15.1667 11.8646H14.1667ZM13.524 11.1563C13.8693 11.1563 14.1667 11.463 14.1667 11.8646H15.1667C15.1667 10.897 14.4407 10.0938 13.524 10.0938V11.1563ZM13.524 12.5729H13.238V13.6354H13.524V12.5729ZM13.238 12.5729H12V13.6354H13.238V12.5729ZM12.8113 13.3818L14.24 15.861L15.0933 15.3057L13.6647 12.8265L12.8113 13.3818ZM11.5 13.1042V15.5833H12.5V13.1042H11.5Z" fill="#545454"/>
</g>
<defs>
<clipPath id="clip0_22_214">
<rect width="16" height="17" fill="white"/>
</clipPath>
</defs>
</svg>
