<svg width="26" height="26" viewBox="0 0 26 26" fill="none" xmlns="http://www.w3.org/2000/svg">
<path fill-rule="evenodd" clip-rule="evenodd" d="M4.33333 8.04763V17.9524C4.33333 18.6091 4.59421 19.2389 5.05859 19.7033C5.52296 20.1677 6.15279 20.4286 6.80952 20.4286H19.1905C19.8472 20.4286 20.477 20.1677 20.9414 19.7033C21.4058 19.2389 21.6667 18.6091 21.6667 17.9524V8.04763C21.6667 7.39091 21.4058 6.76108 20.9414 6.2967C20.477 5.83233 19.8472 5.57144 19.1905 5.57144H6.80952C6.15279 5.57144 5.52296 5.83233 5.05859 6.2967C4.59421 6.76108 4.33333 7.39091 4.33333 8.04763Z" stroke="#E7A602" stroke-width="0.857143" stroke-linecap="round" stroke-linejoin="round"/>
<path d="M6.80952 9.28574L13 13L19.1905 9.28574" stroke="#E7A602" stroke-width="0.857143" stroke-linecap="round" stroke-linejoin="round"/>
</svg>
