<svg width="26" height="26" viewBox="0 0 26 26" fill="none" xmlns="http://www.w3.org/2000/svg">
<path fill-rule="evenodd" clip-rule="evenodd" d="M7.85419 10.8333C7.85419 9.46857 8.39634 8.15971 9.36137 7.19468C10.3264 6.22965 11.6353 5.6875 13 5.6875C14.3648 5.6875 15.6736 6.22965 16.6387 7.19468C17.6037 8.15971 18.1459 9.46857 18.1459 10.8333C18.1459 12.1981 17.6037 13.507 16.6387 14.472C15.6736 15.437 14.3648 15.9792 13 15.9792C11.6353 15.9792 10.3264 15.437 9.36137 14.472C8.39634 13.507 7.85419 12.1981 7.85419 10.8333ZM13 7.3125C12.0662 7.3125 11.1707 7.68344 10.5104 8.34373C9.85013 9.00401 9.47919 9.89955 9.47919 10.8333C9.47919 11.7671 9.85013 12.6627 10.5104 13.3229C11.1707 13.9832 12.0662 14.3542 13 14.3542C13.9338 14.3542 14.8293 13.9832 15.4896 13.3229C16.1499 12.6627 16.5209 11.7671 16.5209 10.8333C16.5209 9.89955 16.1499 9.00401 15.4896 8.34373C14.8293 7.68344 13.9338 7.3125 13 7.3125Z" fill="#E7A602"/>
<path fill-rule="evenodd" clip-rule="evenodd" d="M3.81767 9.59507C4.00284 7.34911 5.02583 5.2549 6.68353 3.72825C8.34123 2.2016 10.5124 1.35415 12.766 1.35416H13.234C15.4876 1.35415 17.6588 2.2016 19.3165 3.72825C20.9742 5.2549 21.9972 7.34911 22.1823 9.59507C22.3884 12.0968 21.6155 14.5809 20.0265 16.5241L14.8341 22.8735C14.6119 23.1452 14.3321 23.3642 14.0149 23.5146C13.6977 23.6649 13.351 23.7429 13 23.7429C12.649 23.7429 12.3023 23.6649 11.9851 23.5146C11.6679 23.3642 11.3881 23.1452 11.1659 22.8735L5.9735 16.5241C4.38438 14.5809 3.61149 12.0968 3.81767 9.59507ZM12.766 2.97916C10.9205 2.97944 9.14261 3.6736 7.78518 4.92387C6.42775 6.17414 5.59004 7.88909 5.43833 9.72832C5.26673 11.8103 5.90989 13.8777 7.23233 15.4949L12.4248 21.8454C12.4946 21.9308 12.5825 21.9997 12.6821 22.047C12.7818 22.0942 12.8908 22.1188 13.0011 22.1188C13.1114 22.1188 13.2203 22.0942 13.32 22.047C13.4197 21.9997 13.5076 21.9308 13.5774 21.8454L18.7698 15.4949C20.0915 13.8774 20.7339 11.81 20.5617 9.72832C20.4099 7.88891 19.5721 6.1738 18.2144 4.9235C16.8568 3.67321 15.0786 2.97916 13.2329 2.97916H12.7649H12.766Z" fill="#E7A602"/>
</svg>
