<svg width="17" height="17" viewBox="0 0 17 17" fill="none" xmlns="http://www.w3.org/2000/svg">
<path d="M14.0038 5.12125L14.0108 5.11417L11.3758 2.47917L10.625 3.23L12.1196 4.72458C11.4538 4.97958 10.9792 5.61708 10.9792 6.375C10.9792 6.60755 11.025 6.83782 11.114 7.05267C11.203 7.26752 11.3334 7.46273 11.4978 7.62717C11.8299 7.95926 12.2803 8.14583 12.75 8.14583C13.005 8.14583 13.2388 8.08917 13.4583 7.99708V13.1042C13.4583 13.292 13.3837 13.4722 13.2509 13.605C13.118 13.7379 12.9379 13.8125 12.75 13.8125C12.5621 13.8125 12.382 13.7379 12.2491 13.605C12.1163 13.4722 12.0417 13.292 12.0417 13.1042V9.91667C12.0417 9.54094 11.8924 9.18061 11.6267 8.91493C11.3611 8.64926 11.0007 8.5 10.625 8.5H9.91667V3.54167C9.91667 3.16594 9.76741 2.80561 9.50174 2.53993C9.23606 2.27426 8.87573 2.125 8.5 2.125H4.25C3.87428 2.125 3.51394 2.27426 3.24827 2.53993C2.98259 2.80561 2.83334 3.16594 2.83334 3.54167V14.875H9.91667V9.5625H10.9792V13.1042C10.9792 13.5738 11.1657 14.0242 11.4978 14.3563C11.8299 14.6884 12.2803 14.875 12.75 14.875C12.9826 14.875 13.2128 14.8292 13.4277 14.7402C13.6425 14.6512 13.8377 14.5208 14.0022 14.3563C14.1666 14.1919 14.297 13.9967 14.386 13.7818C14.475 13.567 14.5208 13.3367 14.5208 13.1042V6.375C14.5208 5.88625 14.3225 5.44 14.0038 5.12125ZM8.5 9.5625V13.4583H4.25V8.5H8.5V9.5625ZM8.5 7.08333H4.25V3.54167H8.5V7.08333ZM12.75 7.08333C12.5621 7.08333 12.382 7.00871 12.2491 6.87587C12.1163 6.74303 12.0417 6.56286 12.0417 6.375C12.0417 6.18714 12.1163 6.00697 12.2491 5.87413C12.382 5.74129 12.5621 5.66667 12.75 5.66667C12.9379 5.66667 13.118 5.74129 13.2509 5.87413C13.3837 6.00697 13.4583 6.18714 13.4583 6.375C13.4583 6.56286 13.3837 6.74303 13.2509 6.87587C13.118 7.00871 12.9379 7.08333 12.75 7.08333Z" fill="#545454"/>
</svg>
