<svg width="42" height="42" viewBox="0 0 42 42" fill="none" xmlns="http://www.w3.org/2000/svg">
<rect width="42" height="42" rx="3" transform="matrix(-1 0 0 1 42 0)" fill="#E7A602"/>
<rect width="25" height="25" transform="matrix(-1 0 0 1 33 8)" fill="#E7A602"/>
<path d="M15.2917 19.4583H23.1938L20.8052 17.0698C20.7085 16.9731 20.6318 16.8583 20.5795 16.7319C20.5271 16.6055 20.5002 16.4701 20.5002 16.3333C20.5002 16.1966 20.5271 16.0611 20.5795 15.9348C20.6318 15.8084 20.7085 15.6936 20.8052 15.5969C20.9019 15.5002 21.0168 15.4234 21.1431 15.3711C21.2695 15.3188 21.4049 15.2918 21.5417 15.2918C21.6785 15.2918 21.8139 15.3188 21.9403 15.3711C22.0666 15.4234 22.1814 15.5002 22.2781 15.5969L27.1813 20.5L22.2781 25.4031C22.1816 25.5002 22.0669 25.5772 21.9405 25.6298C21.8141 25.6824 21.6786 25.7094 21.5417 25.7094C21.4048 25.7094 21.2693 25.6824 21.1429 25.6298C21.0165 25.5772 20.9017 25.5002 20.8052 25.4031C20.7084 25.3065 20.6316 25.1917 20.5792 25.0653C20.5268 24.9389 20.4998 24.8035 20.4998 24.6667C20.4998 24.5299 20.5268 24.3944 20.5792 24.268C20.6316 24.1417 20.7084 24.0269 20.8052 23.9302L23.1938 21.5417H15.2917C15.0154 21.5417 14.7505 21.4319 14.5551 21.2366C14.3598 21.0412 14.25 20.7763 14.25 20.5C14.25 20.2237 14.3598 19.9588 14.5551 19.7634C14.7505 19.5681 15.0154 19.4583 15.2917 19.4583Z" fill="white"/>
</svg>
