<svg width="42" height="42" viewBox="0 0 42 42" fill="none" xmlns="http://www.w3.org/2000/svg">
<rect width="42" height="42" rx="3" fill="#D9D9D9"/>
<path d="M26.7083 19.4583H18.8063L21.1948 17.0698C21.2915 16.9731 21.3682 16.8583 21.4206 16.7319C21.4729 16.6055 21.4998 16.4701 21.4998 16.3333C21.4998 16.1966 21.4729 16.0611 21.4206 15.9348C21.3682 15.8084 21.2915 15.6936 21.1948 15.5969C21.0981 15.5002 20.9833 15.4234 20.8569 15.3711C20.7305 15.3188 20.5951 15.2918 20.4583 15.2918C20.3216 15.2918 20.1861 15.3188 20.0598 15.3711C19.9334 15.4234 19.8186 15.5002 19.7219 15.5969L14.8188 20.5L19.7219 25.4031C19.8184 25.5002 19.9331 25.5772 20.0595 25.6298C20.1859 25.6824 20.3215 25.7094 20.4583 25.7094C20.5952 25.7094 20.7308 25.6824 20.8571 25.6298C20.9835 25.5772 21.0983 25.5002 21.1948 25.4031C21.2916 25.3065 21.3684 25.1917 21.4208 25.0653C21.4732 24.9389 21.5002 24.8035 21.5002 24.6667C21.5002 24.5299 21.4732 24.3944 21.4208 24.268C21.3684 24.1417 21.2916 24.0269 21.1948 23.9302L18.8063 21.5417H26.7083C26.9846 21.5417 27.2496 21.4319 27.4449 21.2366C27.6403 21.0412 27.75 20.7763 27.75 20.5C27.75 20.2237 27.6403 19.9588 27.4449 19.7634C27.2496 19.5681 26.9846 19.4583 26.7083 19.4583Z" fill="#3A3A3A"/>
</svg>
