<svg width="17" height="17" viewBox="0 0 17 17" fill="none" xmlns="http://www.w3.org/2000/svg">
<path d="M14.1667 9.20833C14.1667 10.7737 13.5327 12.1904 12.507 13.2154L13.5086 14.217C14.1673 13.5599 14.6897 12.7792 15.0457 11.9197C15.4018 11.0601 15.5845 10.1387 15.5833 9.20833C15.5833 5.29621 12.4121 2.125 8.5 2.125C4.58787 2.125 1.41666 5.29621 1.41666 9.20833C1.41548 10.1387 1.59816 11.0601 1.9542 11.9197C2.31025 12.7792 2.83265 13.5599 3.49137 14.217L4.49295 13.2154C3.83404 12.5564 3.3478 11.7451 3.0773 10.8534C2.80681 9.96164 2.76041 9.01694 2.94222 8.10297C3.12403 7.189 3.52844 6.33398 4.11961 5.61363C4.71079 4.89329 5.47049 4.32985 6.33143 3.97323C7.19237 3.61662 8.12796 3.47783 9.05535 3.56915C9.98274 3.66048 10.8733 3.97911 11.6481 4.49681C12.423 5.01452 13.0582 5.71532 13.4975 6.53715C13.9368 7.35898 14.1666 8.27646 14.1667 9.20833ZM10.8325 5.87421L7.64504 9.06171L8.64662 10.0633L11.8341 6.87579L10.8325 5.87421Z" fill="#545454"/>
</svg>
