<svg width="25" height="25" viewBox="0 0 25 25" fill="none" xmlns="http://www.w3.org/2000/svg">
<rect width="25" height="25" transform="matrix(-1 0 0 1 25 0)" fill="#E7A602"/>
<path d="M7.29169 11.4583H15.1938L12.8052 9.06979C12.7085 8.97308 12.6318 8.85826 12.5795 8.7319C12.5271 8.60554 12.5002 8.47011 12.5002 8.33333C12.5002 8.19656 12.5271 8.06113 12.5795 7.93477C12.6318 7.8084 12.7085 7.69359 12.8052 7.59687C12.9019 7.50016 13.0168 7.42345 13.1431 7.3711C13.2695 7.31876 13.4049 7.29182 13.5417 7.29182C13.6785 7.29182 13.8139 7.31876 13.9403 7.3711C14.0666 7.42345 14.1814 7.50016 14.2781 7.59688L19.1813 12.5L14.2781 17.4031C14.1816 17.5002 14.0669 17.5772 13.9405 17.6298C13.8141 17.6824 13.6786 17.7094 13.5417 17.7094C13.4048 17.7094 13.2693 17.6824 13.1429 17.6298C13.0165 17.5772 12.9017 17.5002 12.8052 17.4031C12.7084 17.3065 12.6316 17.1917 12.5792 17.0653C12.5268 16.9389 12.4998 16.8035 12.4998 16.6667C12.4998 16.5299 12.5268 16.3944 12.5792 16.268C12.6316 16.1417 12.7084 16.0269 12.8052 15.9302L15.1938 13.5417H7.29169C7.01542 13.5417 6.75047 13.4319 6.55512 13.2366C6.35977 13.0412 6.25003 12.7763 6.25003 12.5C6.25003 12.2237 6.35977 11.9588 6.55512 11.7634C6.75047 11.5681 7.01542 11.4583 7.29169 11.4583Z" fill="white"/>
</svg>
