<svg width="25" height="25" viewBox="0 0 25 25" fill="none" xmlns="http://www.w3.org/2000/svg">
<path d="M17.7083 11.4583H9.80626L12.1948 9.06979C12.2915 8.97308 12.3682 8.85826 12.4206 8.7319C12.4729 8.60554 12.4998 8.47011 12.4998 8.33333C12.4998 8.19656 12.4729 8.06113 12.4206 7.93477C12.3682 7.8084 12.2915 7.69359 12.1948 7.59687C12.0981 7.50016 11.9833 7.42345 11.8569 7.3711C11.7305 7.31876 11.5951 7.29182 11.4583 7.29182C11.3216 7.29182 11.1861 7.31876 11.0598 7.3711C10.9334 7.42345 10.8186 7.50016 10.7219 7.59688L5.81876 12.5L10.7219 17.4031C10.8184 17.5002 10.9331 17.5772 11.0595 17.6298C11.1859 17.6824 11.3215 17.7094 11.4583 17.7094C11.5952 17.7094 11.7308 17.6824 11.8571 17.6298C11.9835 17.5772 12.0983 17.5002 12.1948 17.4031C12.2916 17.3065 12.3684 17.1917 12.4208 17.0653C12.4732 16.9389 12.5002 16.8035 12.5002 16.6667C12.5002 16.5299 12.4732 16.3944 12.4208 16.268C12.3684 16.1417 12.2916 16.0269 12.1948 15.9302L9.80626 13.5417H17.7083C17.9846 13.5417 18.2496 13.4319 18.4449 13.2366C18.6403 13.0412 18.75 12.7763 18.75 12.5C18.75 12.2237 18.6403 11.9588 18.4449 11.7634C18.2496 11.5681 17.9846 11.4583 17.7083 11.4583Z" fill="#3A3A3A"/>
</svg>
