<svg width="14" height="11" viewBox="0 0 14 11" fill="none" xmlns="http://www.w3.org/2000/svg">
<path d="M12.7083 4.45833H4.80626L7.1948 2.06979C7.29151 1.97308 7.36823 1.85826 7.42057 1.7319C7.47291 1.60554 7.49985 1.47011 7.49985 1.33333C7.49985 1.19656 7.47291 1.06113 7.42057 0.934765C7.36823 0.808403 7.29151 0.693588 7.1948 0.596875C7.09808 0.500162 6.98327 0.423445 6.85691 0.371104C6.73055 0.318764 6.59511 0.291824 6.45834 0.291824C6.32157 0.291824 6.18613 0.318764 6.05977 0.371104C5.93341 0.423445 5.81859 0.500162 5.72188 0.596875L0.818756 5.5L5.72188 10.4031C5.8184 10.5002 5.93315 10.5772 6.05953 10.6298C6.18592 10.6824 6.32146 10.7094 6.45834 10.7094C6.59522 10.7094 6.73076 10.6824 6.85714 10.6298C6.98353 10.5772 7.09828 10.5002 7.1948 10.4031C7.29162 10.3065 7.36843 10.1917 7.42083 10.0653C7.47324 9.93894 7.50022 9.80347 7.50022 9.66667C7.50022 9.52986 7.47324 9.3944 7.42083 9.26803C7.36843 9.14166 7.29162 9.02686 7.1948 8.93021L4.80626 6.54167H12.7083C12.9846 6.54167 13.2496 6.43192 13.4449 6.23657C13.6403 6.04122 13.75 5.77627 13.75 5.5C13.75 5.22373 13.6403 4.95878 13.4449 4.76343C13.2496 4.56808 12.9846 4.45833 12.7083 4.45833Z" fill="#3A3A3A"/>
</svg>
