<svg width="14" height="11" viewBox="0 0 14 11" fill="none" xmlns="http://www.w3.org/2000/svg">
<path d="M1.29169 4.45833H9.19377L6.80523 2.06979C6.70852 1.97308 6.6318 1.85826 6.57946 1.7319C6.52712 1.60554 6.50018 1.47011 6.50018 1.33333C6.50018 1.19656 6.52712 1.06113 6.57946 0.934765C6.6318 0.808403 6.70852 0.693588 6.80523 0.596875C6.90195 0.500162 7.01676 0.423445 7.14312 0.371104C7.26948 0.318764 7.40492 0.291824 7.54169 0.291824C7.67846 0.291824 7.8139 0.318764 7.94026 0.371104C8.06662 0.423445 8.18144 0.500162 8.27815 0.596875L13.1813 5.5L8.27815 10.4031C8.18164 10.5002 8.06688 10.5772 7.9405 10.6298C7.81411 10.6824 7.67857 10.7094 7.54169 10.7094C7.40481 10.7094 7.26928 10.6824 7.14289 10.6298C7.0165 10.5772 6.90175 10.5002 6.80523 10.4031C6.70841 10.3065 6.6316 10.1917 6.5792 10.0653C6.52679 9.93894 6.49981 9.80347 6.49981 9.66667C6.49981 9.52986 6.52679 9.3944 6.5792 9.26803C6.6316 9.14166 6.70841 9.02686 6.80523 8.93021L9.19377 6.54167H1.29169C1.01542 6.54167 0.750472 6.43192 0.555121 6.23657C0.359772 6.04122 0.250026 5.77627 0.250026 5.5C0.250026 5.22373 0.359772 4.95878 0.555121 4.76343C0.750472 4.56808 1.01542 4.45833 1.29169 4.45833Z" fill="white"/>
</svg>
